<mxfile host="Electron" agent="Mozilla/5.0 (X11; Linux x86_64) AppleWebKit/537.36 (KHTML, like Gecko) draw.io/24.7.17 Chrome/128.0.6613.36 Electron/32.0.1 Safari/537.36" version="24.7.17" pages="3">
  <diagram name="PÃ¡gina-1" id="jXwocx7pewkiLTSxxXEK">
    <mxGraphModel dx="1434" dy="829" grid="1" gridSize="10" guides="1" tooltips="1" connect="1" arrows="1" fold="1" page="1" pageScale="1" pageWidth="827" pageHeight="1169" math="0" shadow="0">
      <root>
        <mxCell id="0" />
        <mxCell id="1" parent="0" />
        <mxCell id="z7iPYE6bejsEPfnaOV1Q-3" style="edgeStyle=orthogonalEdgeStyle;rounded=0;orthogonalLoop=1;jettySize=auto;html=1;exitX=0.5;exitY=1;exitDx=0;exitDy=0;entryX=0.5;entryY=0;entryDx=0;entryDy=0;" parent="1" source="z7iPYE6bejsEPfnaOV1Q-2" edge="1">
          <mxGeometry relative="1" as="geometry">
            <mxPoint x="360" y="160" as="targetPoint" />
          </mxGeometry>
        </mxCell>
        <mxCell id="z7iPYE6bejsEPfnaOV1Q-2" value="POWER ON" style="rounded=1;whiteSpace=wrap;html=1;fillColor=#dae8fc;strokeColor=#6c8ebf;" parent="1" vertex="1">
          <mxGeometry x="315" y="50" width="90" height="40" as="geometry" />
        </mxCell>
        <mxCell id="z7iPYE6bejsEPfnaOV1Q-6" style="edgeStyle=orthogonalEdgeStyle;rounded=0;orthogonalLoop=1;jettySize=auto;html=1;exitX=1;exitY=0.5;exitDx=0;exitDy=0;entryX=0;entryY=0.5;entryDx=0;entryDy=0;" parent="1" source="z7iPYE6bejsEPfnaOV1Q-4" target="z7iPYE6bejsEPfnaOV1Q-5" edge="1">
          <mxGeometry relative="1" as="geometry" />
        </mxCell>
        <mxCell id="z7iPYE6bejsEPfnaOV1Q-11" style="edgeStyle=orthogonalEdgeStyle;rounded=0;orthogonalLoop=1;jettySize=auto;html=1;exitX=0.5;exitY=1;exitDx=0;exitDy=0;entryX=0.5;entryY=0;entryDx=0;entryDy=0;" parent="1" source="z7iPYE6bejsEPfnaOV1Q-4" target="z7iPYE6bejsEPfnaOV1Q-8" edge="1">
          <mxGeometry relative="1" as="geometry" />
        </mxCell>
        <mxCell id="z7iPYE6bejsEPfnaOV1Q-4" value="init_device" style="rounded=1;whiteSpace=wrap;html=1;fillColor=#dae8fc;strokeColor=#6c8ebf;" parent="1" vertex="1">
          <mxGeometry x="272.5" y="160" width="175" height="30" as="geometry" />
        </mxCell>
        <mxCell id="z7iPYE6bejsEPfnaOV1Q-10" style="edgeStyle=orthogonalEdgeStyle;rounded=0;orthogonalLoop=1;jettySize=auto;html=1;exitX=1;exitY=0.5;exitDx=0;exitDy=0;" parent="1" source="z7iPYE6bejsEPfnaOV1Q-5" target="z7iPYE6bejsEPfnaOV1Q-9" edge="1">
          <mxGeometry relative="1" as="geometry" />
        </mxCell>
        <mxCell id="z7iPYE6bejsEPfnaOV1Q-5" value="create_event_task" style="shape=process;whiteSpace=wrap;html=1;backgroundOutline=1;fillColor=#f8cecc;strokeColor=#b85450;" parent="1" vertex="1">
          <mxGeometry x="520" y="147.5" width="130" height="55" as="geometry" />
        </mxCell>
        <mxCell id="z7iPYE6bejsEPfnaOV1Q-13" style="edgeStyle=orthogonalEdgeStyle;rounded=0;orthogonalLoop=1;jettySize=auto;html=1;exitX=1;exitY=0.5;exitDx=0;exitDy=0;entryX=0;entryY=0.5;entryDx=0;entryDy=0;" parent="1" source="z7iPYE6bejsEPfnaOV1Q-8" target="z7iPYE6bejsEPfnaOV1Q-12" edge="1">
          <mxGeometry relative="1" as="geometry" />
        </mxCell>
        <mxCell id="z7iPYE6bejsEPfnaOV1Q-14" value="NOK" style="edgeLabel;html=1;align=center;verticalAlign=middle;resizable=0;points=[];" parent="z7iPYE6bejsEPfnaOV1Q-13" vertex="1" connectable="0">
          <mxGeometry x="-0.7302" y="1" relative="1" as="geometry">
            <mxPoint x="23" y="1" as="offset" />
          </mxGeometry>
        </mxCell>
        <mxCell id="z7iPYE6bejsEPfnaOV1Q-16" style="edgeStyle=orthogonalEdgeStyle;rounded=0;orthogonalLoop=1;jettySize=auto;html=1;exitX=0.5;exitY=1;exitDx=0;exitDy=0;entryX=0.5;entryY=0;entryDx=0;entryDy=0;" parent="1" source="z7iPYE6bejsEPfnaOV1Q-8" target="z7iPYE6bejsEPfnaOV1Q-15" edge="1">
          <mxGeometry relative="1" as="geometry" />
        </mxCell>
        <mxCell id="z7iPYE6bejsEPfnaOV1Q-20" value="ESP_OK" style="edgeLabel;html=1;align=center;verticalAlign=middle;resizable=0;points=[];" parent="z7iPYE6bejsEPfnaOV1Q-16" vertex="1" connectable="0">
          <mxGeometry x="-0.15" relative="1" as="geometry">
            <mxPoint x="30" as="offset" />
          </mxGeometry>
        </mxCell>
        <mxCell id="z7iPYE6bejsEPfnaOV1Q-8" value="init_global_parameters" style="rhombus;whiteSpace=wrap;html=1;fillColor=#dae8fc;strokeColor=#6c8ebf;" parent="1" vertex="1">
          <mxGeometry x="287.5" y="240" width="145" height="80" as="geometry" />
        </mxCell>
        <mxCell id="z7iPYE6bejsEPfnaOV1Q-9" value="STARTING" style="ellipse;whiteSpace=wrap;html=1;fillColor=#fff2cc;strokeColor=#d6b656;" parent="1" vertex="1">
          <mxGeometry x="730" y="146.25" width="110" height="57.5" as="geometry" />
        </mxCell>
        <mxCell id="z7iPYE6bejsEPfnaOV1Q-12" value="ERROR_APP" style="ellipse;whiteSpace=wrap;html=1;fillColor=#fff2cc;strokeColor=#d6b656;" parent="1" vertex="1">
          <mxGeometry x="540" y="251.25" width="110" height="57.5" as="geometry" />
        </mxCell>
        <mxCell id="z7iPYE6bejsEPfnaOV1Q-18" style="edgeStyle=orthogonalEdgeStyle;rounded=0;orthogonalLoop=1;jettySize=auto;html=1;exitX=1;exitY=0.5;exitDx=0;exitDy=0;entryX=0;entryY=0.5;entryDx=0;entryDy=0;" parent="1" source="z7iPYE6bejsEPfnaOV1Q-15" target="z7iPYE6bejsEPfnaOV1Q-17" edge="1">
          <mxGeometry relative="1" as="geometry" />
        </mxCell>
        <mxCell id="z7iPYE6bejsEPfnaOV1Q-19" value="NOK" style="edgeLabel;html=1;align=center;verticalAlign=middle;resizable=0;points=[];" parent="z7iPYE6bejsEPfnaOV1Q-18" vertex="1" connectable="0">
          <mxGeometry x="-0.6744" y="-2" relative="1" as="geometry">
            <mxPoint x="20" y="-2" as="offset" />
          </mxGeometry>
        </mxCell>
        <mxCell id="z7iPYE6bejsEPfnaOV1Q-22" style="edgeStyle=orthogonalEdgeStyle;rounded=0;orthogonalLoop=1;jettySize=auto;html=1;exitX=0.5;exitY=1;exitDx=0;exitDy=0;entryX=0.5;entryY=0;entryDx=0;entryDy=0;" parent="1" source="z7iPYE6bejsEPfnaOV1Q-15" edge="1">
          <mxGeometry relative="1" as="geometry">
            <mxPoint x="360" y="500" as="targetPoint" />
          </mxGeometry>
        </mxCell>
        <mxCell id="z7iPYE6bejsEPfnaOV1Q-15" value="init_app" style="rhombus;whiteSpace=wrap;html=1;fillColor=#dae8fc;strokeColor=#6c8ebf;" parent="1" vertex="1">
          <mxGeometry x="287.5" y="360" width="145" height="80" as="geometry" />
        </mxCell>
        <mxCell id="z7iPYE6bejsEPfnaOV1Q-17" value="ERROR_APP" style="ellipse;whiteSpace=wrap;html=1;fillColor=#fff2cc;strokeColor=#d6b656;" parent="1" vertex="1">
          <mxGeometry x="540" y="371.25" width="110" height="57.5" as="geometry" />
        </mxCell>
        <mxCell id="z7iPYE6bejsEPfnaOV1Q-32" style="edgeStyle=orthogonalEdgeStyle;rounded=0;orthogonalLoop=1;jettySize=auto;html=1;exitX=1;exitY=0.5;exitDx=0;exitDy=0;entryX=0;entryY=0.5;entryDx=0;entryDy=0;" parent="1" source="z7iPYE6bejsEPfnaOV1Q-24" target="z7iPYE6bejsEPfnaOV1Q-31" edge="1">
          <mxGeometry relative="1" as="geometry" />
        </mxCell>
        <mxCell id="z7iPYE6bejsEPfnaOV1Q-37" value="YES" style="edgeLabel;html=1;align=center;verticalAlign=middle;resizable=0;points=[];" parent="z7iPYE6bejsEPfnaOV1Q-32" vertex="1" connectable="0">
          <mxGeometry x="-0.4111" relative="1" as="geometry">
            <mxPoint as="offset" />
          </mxGeometry>
        </mxCell>
        <mxCell id="lT1jIhklgJvkolQbpag2-4" style="edgeStyle=orthogonalEdgeStyle;rounded=0;orthogonalLoop=1;jettySize=auto;html=1;exitX=0.5;exitY=1;exitDx=0;exitDy=0;entryX=0.5;entryY=0;entryDx=0;entryDy=0;" parent="1" source="z7iPYE6bejsEPfnaOV1Q-24" target="lT1jIhklgJvkolQbpag2-3" edge="1">
          <mxGeometry relative="1" as="geometry" />
        </mxCell>
        <mxCell id="z7iPYE6bejsEPfnaOV1Q-24" value="check_upgrade" style="rhombus;whiteSpace=wrap;html=1;fillColor=#dae8fc;strokeColor=#6c8ebf;" parent="1" vertex="1">
          <mxGeometry x="287.5" y="500" width="145" height="80" as="geometry" />
        </mxCell>
        <mxCell id="z7iPYE6bejsEPfnaOV1Q-25" value="UPGRADING" style="ellipse;whiteSpace=wrap;html=1;fillColor=#fff2cc;strokeColor=#d6b656;" parent="1" vertex="1">
          <mxGeometry x="870" y="511.25" width="110" height="57.5" as="geometry" />
        </mxCell>
        <mxCell id="z7iPYE6bejsEPfnaOV1Q-27" value="send_event_upgrade" style="text;html=1;align=center;verticalAlign=middle;resizable=0;points=[];autosize=1;strokeColor=none;fillColor=none;" parent="1" vertex="1">
          <mxGeometry x="700" y="510" width="140" height="30" as="geometry" />
        </mxCell>
        <mxCell id="z7iPYE6bejsEPfnaOV1Q-33" style="edgeStyle=orthogonalEdgeStyle;rounded=0;orthogonalLoop=1;jettySize=auto;html=1;exitX=1;exitY=0.5;exitDx=0;exitDy=0;entryX=0;entryY=0.5;entryDx=0;entryDy=0;" parent="1" source="z7iPYE6bejsEPfnaOV1Q-31" target="z7iPYE6bejsEPfnaOV1Q-25" edge="1">
          <mxGeometry relative="1" as="geometry" />
        </mxCell>
        <mxCell id="z7iPYE6bejsEPfnaOV1Q-36" value="OK" style="edgeLabel;html=1;align=center;verticalAlign=middle;resizable=0;points=[];" parent="z7iPYE6bejsEPfnaOV1Q-33" vertex="1" connectable="0">
          <mxGeometry x="-0.8074" y="-3" relative="1" as="geometry">
            <mxPoint as="offset" />
          </mxGeometry>
        </mxCell>
        <mxCell id="z7iPYE6bejsEPfnaOV1Q-34" style="edgeStyle=orthogonalEdgeStyle;rounded=0;orthogonalLoop=1;jettySize=auto;html=1;exitX=0.5;exitY=0;exitDx=0;exitDy=0;entryX=0.5;entryY=1;entryDx=0;entryDy=0;" parent="1" source="z7iPYE6bejsEPfnaOV1Q-31" target="z7iPYE6bejsEPfnaOV1Q-17" edge="1">
          <mxGeometry relative="1" as="geometry" />
        </mxCell>
        <mxCell id="z7iPYE6bejsEPfnaOV1Q-35" value="NOK" style="edgeLabel;html=1;align=center;verticalAlign=middle;resizable=0;points=[];" parent="z7iPYE6bejsEPfnaOV1Q-34" vertex="1" connectable="0">
          <mxGeometry x="-0.2702" y="3" relative="1" as="geometry">
            <mxPoint as="offset" />
          </mxGeometry>
        </mxCell>
        <mxCell id="z7iPYE6bejsEPfnaOV1Q-42" style="edgeStyle=orthogonalEdgeStyle;rounded=0;orthogonalLoop=1;jettySize=auto;html=1;exitX=0.5;exitY=1;exitDx=0;exitDy=0;entryX=0.5;entryY=0;entryDx=0;entryDy=0;" parent="1" source="z7iPYE6bejsEPfnaOV1Q-31" target="z7iPYE6bejsEPfnaOV1Q-41" edge="1">
          <mxGeometry relative="1" as="geometry" />
        </mxCell>
        <mxCell id="z7iPYE6bejsEPfnaOV1Q-31" value="init_wifi_device" style="rhombus;whiteSpace=wrap;html=1;fillColor=#dae8fc;strokeColor=#6c8ebf;" parent="1" vertex="1">
          <mxGeometry x="522.5" y="500" width="145" height="80" as="geometry" />
        </mxCell>
        <mxCell id="z7iPYE6bejsEPfnaOV1Q-45" style="edgeStyle=orthogonalEdgeStyle;rounded=0;orthogonalLoop=1;jettySize=auto;html=1;exitX=0.5;exitY=1;exitDx=0;exitDy=0;entryX=0.5;entryY=0;entryDx=0;entryDy=0;" parent="1" source="z7iPYE6bejsEPfnaOV1Q-40" target="z7iPYE6bejsEPfnaOV1Q-2" edge="1">
          <mxGeometry relative="1" as="geometry">
            <Array as="points">
              <mxPoint x="595" y="720" />
              <mxPoint x="1030" y="720" />
              <mxPoint x="1030" y="30" />
              <mxPoint x="360" y="30" />
            </Array>
          </mxGeometry>
        </mxCell>
        <mxCell id="z7iPYE6bejsEPfnaOV1Q-40" value="upgrade_ota_esp8266" style="rounded=1;whiteSpace=wrap;html=1;fillColor=#dae8fc;strokeColor=#6c8ebf;" parent="1" vertex="1">
          <mxGeometry x="507.5" y="670" width="175" height="30" as="geometry" />
        </mxCell>
        <mxCell id="z7iPYE6bejsEPfnaOV1Q-43" style="edgeStyle=orthogonalEdgeStyle;rounded=0;orthogonalLoop=1;jettySize=auto;html=1;exitX=0.5;exitY=1;exitDx=0;exitDy=0;entryX=0.5;entryY=0;entryDx=0;entryDy=0;" parent="1" source="z7iPYE6bejsEPfnaOV1Q-41" target="z7iPYE6bejsEPfnaOV1Q-40" edge="1">
          <mxGeometry relative="1" as="geometry" />
        </mxCell>
        <mxCell id="z7iPYE6bejsEPfnaOV1Q-41" value="delete_key_upgrade" style="rounded=1;whiteSpace=wrap;html=1;fillColor=#dae8fc;strokeColor=#6c8ebf;" parent="1" vertex="1">
          <mxGeometry x="507.5" y="610" width="175" height="30" as="geometry" />
        </mxCell>
        <mxCell id="lT1jIhklgJvkolQbpag2-7" style="edgeStyle=orthogonalEdgeStyle;rounded=0;orthogonalLoop=1;jettySize=auto;html=1;exitX=0.5;exitY=1;exitDx=0;exitDy=0;entryX=0.5;entryY=0;entryDx=0;entryDy=0;" parent="1" source="lT1jIhklgJvkolQbpag2-2" target="lT1jIhklgJvkolQbpag2-6" edge="1">
          <mxGeometry relative="1" as="geometry" />
        </mxCell>
        <mxCell id="lT1jIhklgJvkolQbpag2-17" value="YES" style="edgeLabel;html=1;align=center;verticalAlign=middle;resizable=0;points=[];" parent="lT1jIhklgJvkolQbpag2-7" vertex="1" connectable="0">
          <mxGeometry x="-0.3" y="-1" relative="1" as="geometry">
            <mxPoint as="offset" />
          </mxGeometry>
        </mxCell>
        <mxCell id="lT1jIhklgJvkolQbpag2-31" style="edgeStyle=orthogonalEdgeStyle;rounded=0;orthogonalLoop=1;jettySize=auto;html=1;exitX=0;exitY=0.5;exitDx=0;exitDy=0;entryX=0;entryY=0.5;entryDx=0;entryDy=0;" parent="1" source="lT1jIhklgJvkolQbpag2-2" target="lT1jIhklgJvkolQbpag2-14" edge="1">
          <mxGeometry relative="1" as="geometry">
            <Array as="points">
              <mxPoint x="210" y="770" />
              <mxPoint x="210" y="970" />
            </Array>
          </mxGeometry>
        </mxCell>
        <mxCell id="lT1jIhklgJvkolQbpag2-32" value="NO" style="edgeLabel;html=1;align=center;verticalAlign=middle;resizable=0;points=[];" parent="lT1jIhklgJvkolQbpag2-31" vertex="1" connectable="0">
          <mxGeometry x="-0.8225" y="-2" relative="1" as="geometry">
            <mxPoint x="1" as="offset" />
          </mxGeometry>
        </mxCell>
        <mxCell id="lT1jIhklgJvkolQbpag2-2" value="use_mqtt" style="rhombus;whiteSpace=wrap;html=1;fillColor=#dae8fc;strokeColor=#6c8ebf;" parent="1" vertex="1">
          <mxGeometry x="287.5" y="730" width="145" height="80" as="geometry" />
        </mxCell>
        <mxCell id="lT1jIhklgJvkolQbpag2-5" style="edgeStyle=orthogonalEdgeStyle;rounded=0;orthogonalLoop=1;jettySize=auto;html=1;exitX=0.5;exitY=1;exitDx=0;exitDy=0;entryX=0.5;entryY=0;entryDx=0;entryDy=0;" parent="1" source="lT1jIhklgJvkolQbpag2-3" target="lT1jIhklgJvkolQbpag2-2" edge="1">
          <mxGeometry relative="1" as="geometry" />
        </mxCell>
        <mxCell id="lT1jIhklgJvkolQbpag2-3" value="init_services_device" style="rounded=1;whiteSpace=wrap;html=1;fillColor=#dae8fc;strokeColor=#6c8ebf;" parent="1" vertex="1">
          <mxGeometry x="272.5" y="650" width="175" height="30" as="geometry" />
        </mxCell>
        <mxCell id="lT1jIhklgJvkolQbpag2-11" style="edgeStyle=orthogonalEdgeStyle;rounded=0;orthogonalLoop=1;jettySize=auto;html=1;exitX=1;exitY=0.5;exitDx=0;exitDy=0;entryX=0;entryY=0.5;entryDx=0;entryDy=0;" parent="1" source="lT1jIhklgJvkolQbpag2-6" target="lT1jIhklgJvkolQbpag2-10" edge="1">
          <mxGeometry relative="1" as="geometry" />
        </mxCell>
        <mxCell id="lT1jIhklgJvkolQbpag2-16" style="edgeStyle=orthogonalEdgeStyle;rounded=0;orthogonalLoop=1;jettySize=auto;html=1;exitX=0.5;exitY=1;exitDx=0;exitDy=0;entryX=0.5;entryY=0;entryDx=0;entryDy=0;" parent="1" source="lT1jIhklgJvkolQbpag2-6" target="lT1jIhklgJvkolQbpag2-14" edge="1">
          <mxGeometry relative="1" as="geometry" />
        </mxCell>
        <mxCell id="lT1jIhklgJvkolQbpag2-6" value="init_mqtt_service" style="rounded=1;whiteSpace=wrap;html=1;fillColor=#dae8fc;strokeColor=#6c8ebf;" parent="1" vertex="1">
          <mxGeometry x="272.5" y="850" width="175" height="30" as="geometry" />
        </mxCell>
        <mxCell id="lT1jIhklgJvkolQbpag2-10" value="retry" style="rounded=1;whiteSpace=wrap;html=1;fillColor=#dae8fc;strokeColor=#6c8ebf;" parent="1" vertex="1">
          <mxGeometry x="620" y="850" width="175" height="30" as="geometry" />
        </mxCell>
        <mxCell id="lT1jIhklgJvkolQbpag2-12" value="&lt;span style=&quot;background-color:#f7f7f7;padding:0px 0px 0px 2px;&quot;&gt;&lt;span style=&quot;color:#2c2c2c;background-color:#f7f7f7;font-family:&amp;quot;Monospace&amp;quot;;font-size:10pt;white-space:pre;&quot;&gt;&lt;span style=&quot;color:#000000;&quot;&gt;&lt;/span&gt;&lt;span style=&quot;color:#0000c0;background-color:#d4d4d4;font-style:italic;&quot;&gt;EVENT_ERROR_MQTT&lt;/span&gt;&lt;/span&gt;&lt;/span&gt;" style="text;whiteSpace=wrap;html=1;" parent="1" vertex="1">
          <mxGeometry x="460" y="840" width="160" height="40" as="geometry" />
        </mxCell>
        <mxCell id="lT1jIhklgJvkolQbpag2-27" style="edgeStyle=orthogonalEdgeStyle;rounded=0;orthogonalLoop=1;jettySize=auto;html=1;exitX=0.5;exitY=1;exitDx=0;exitDy=0;entryX=0.5;entryY=0;entryDx=0;entryDy=0;" parent="1" source="lT1jIhklgJvkolQbpag2-14" target="lT1jIhklgJvkolQbpag2-20" edge="1">
          <mxGeometry relative="1" as="geometry" />
        </mxCell>
        <mxCell id="lT1jIhklgJvkolQbpag2-28" value="YES" style="edgeLabel;html=1;align=center;verticalAlign=middle;resizable=0;points=[];" parent="lT1jIhklgJvkolQbpag2-27" vertex="1" connectable="0">
          <mxGeometry x="-0.1899" relative="1" as="geometry">
            <mxPoint as="offset" />
          </mxGeometry>
        </mxCell>
        <mxCell id="lT1jIhklgJvkolQbpag2-39" style="edgeStyle=orthogonalEdgeStyle;rounded=0;orthogonalLoop=1;jettySize=auto;html=1;exitX=1;exitY=0.5;exitDx=0;exitDy=0;entryX=1;entryY=0.5;entryDx=0;entryDy=0;" parent="1" source="lT1jIhklgJvkolQbpag2-14" target="lT1jIhklgJvkolQbpag2-37" edge="1">
          <mxGeometry relative="1" as="geometry">
            <Array as="points">
              <mxPoint x="530" y="970" />
              <mxPoint x="530" y="1530" />
            </Array>
          </mxGeometry>
        </mxCell>
        <mxCell id="lT1jIhklgJvkolQbpag2-40" value="NO" style="edgeLabel;html=1;align=center;verticalAlign=middle;resizable=0;points=[];" parent="lT1jIhklgJvkolQbpag2-39" vertex="1" connectable="0">
          <mxGeometry x="-0.9414" y="1" relative="1" as="geometry">
            <mxPoint x="1" as="offset" />
          </mxGeometry>
        </mxCell>
        <mxCell id="lT1jIhklgJvkolQbpag2-14" value="use_ntp" style="rhombus;whiteSpace=wrap;html=1;fillColor=#dae8fc;strokeColor=#6c8ebf;" parent="1" vertex="1">
          <mxGeometry x="287.5" y="930" width="145" height="80" as="geometry" />
        </mxCell>
        <mxCell id="lT1jIhklgJvkolQbpag2-15" value="&lt;span style=&quot;background-color:#f7f7f7;padding:0px 0px 0px 2px;&quot;&gt;&lt;span style=&quot;color:#2c2c2c;background-color:#f7f7f7;font-family:&amp;quot;Monospace&amp;quot;;font-size:10pt;white-space:pre;&quot;&gt;&lt;span style=&quot;color:#000000;&quot;&gt;&lt;/span&gt;&lt;span style=&quot;color:#0000c0;background-color:#d4d4d4;font-style:italic;&quot;&gt;EVENT_MQTT_OK&lt;/span&gt;&lt;/span&gt;&lt;/span&gt;" style="text;whiteSpace=wrap;html=1;" parent="1" vertex="1">
          <mxGeometry x="367.5" y="890" width="112.5" height="30" as="geometry" />
        </mxCell>
        <mxCell id="lT1jIhklgJvkolQbpag2-35" style="edgeStyle=orthogonalEdgeStyle;rounded=0;orthogonalLoop=1;jettySize=auto;html=1;exitX=0.5;exitY=1;exitDx=0;exitDy=0;entryX=0.5;entryY=0;entryDx=0;entryDy=0;" parent="1" source="lT1jIhklgJvkolQbpag2-20" target="lT1jIhklgJvkolQbpag2-34" edge="1">
          <mxGeometry relative="1" as="geometry" />
        </mxCell>
        <mxCell id="lT1jIhklgJvkolQbpag2-41" value="YES" style="edgeLabel;html=1;align=center;verticalAlign=middle;resizable=0;points=[];" parent="lT1jIhklgJvkolQbpag2-35" vertex="1" connectable="0">
          <mxGeometry x="-0.0196" y="2" relative="1" as="geometry">
            <mxPoint as="offset" />
          </mxGeometry>
        </mxCell>
        <mxCell id="lT1jIhklgJvkolQbpag2-43" style="edgeStyle=orthogonalEdgeStyle;rounded=0;orthogonalLoop=1;jettySize=auto;html=1;exitX=1;exitY=0.5;exitDx=0;exitDy=0;entryX=1;entryY=0.5;entryDx=0;entryDy=0;" parent="1" source="lT1jIhklgJvkolQbpag2-20" target="lT1jIhklgJvkolQbpag2-37" edge="1">
          <mxGeometry relative="1" as="geometry">
            <Array as="points">
              <mxPoint x="530" y="1129" />
              <mxPoint x="530" y="1530" />
            </Array>
          </mxGeometry>
        </mxCell>
        <mxCell id="lT1jIhklgJvkolQbpag2-20" value="init_service_ntp ok?" style="rhombus;whiteSpace=wrap;html=1;fillColor=#dae8fc;strokeColor=#6c8ebf;" parent="1" vertex="1">
          <mxGeometry x="287.5" y="1089" width="145" height="80" as="geometry" />
        </mxCell>
        <mxCell id="lT1jIhklgJvkolQbpag2-38" style="edgeStyle=orthogonalEdgeStyle;rounded=0;orthogonalLoop=1;jettySize=auto;html=1;exitX=0.5;exitY=1;exitDx=0;exitDy=0;entryX=0.5;entryY=0;entryDx=0;entryDy=0;" parent="1" source="lT1jIhklgJvkolQbpag2-24" target="lT1jIhklgJvkolQbpag2-37" edge="1">
          <mxGeometry relative="1" as="geometry" />
        </mxCell>
        <mxCell id="lT1jIhklgJvkolQbpag2-45" style="edgeStyle=orthogonalEdgeStyle;rounded=0;orthogonalLoop=1;jettySize=auto;html=1;exitX=1;exitY=0.5;exitDx=0;exitDy=0;entryX=1;entryY=0.5;entryDx=0;entryDy=0;" parent="1" source="lT1jIhklgJvkolQbpag2-24" target="lT1jIhklgJvkolQbpag2-37" edge="1">
          <mxGeometry relative="1" as="geometry">
            <Array as="points">
              <mxPoint x="530" y="1400" />
              <mxPoint x="530" y="1530" />
            </Array>
          </mxGeometry>
        </mxCell>
        <mxCell id="lT1jIhklgJvkolQbpag2-24" value="init_service_schedule ok?" style="rhombus;whiteSpace=wrap;html=1;fillColor=#dae8fc;strokeColor=#6c8ebf;" parent="1" vertex="1">
          <mxGeometry x="287.5" y="1360" width="145" height="80" as="geometry" />
        </mxCell>
        <mxCell id="lT1jIhklgJvkolQbpag2-36" style="edgeStyle=orthogonalEdgeStyle;rounded=0;orthogonalLoop=1;jettySize=auto;html=1;exitX=0.5;exitY=1;exitDx=0;exitDy=0;entryX=0.5;entryY=0;entryDx=0;entryDy=0;" parent="1" source="lT1jIhklgJvkolQbpag2-34" target="lT1jIhklgJvkolQbpag2-24" edge="1">
          <mxGeometry relative="1" as="geometry" />
        </mxCell>
        <mxCell id="lT1jIhklgJvkolQbpag2-44" style="edgeStyle=orthogonalEdgeStyle;rounded=0;orthogonalLoop=1;jettySize=auto;html=1;exitX=1;exitY=0.5;exitDx=0;exitDy=0;entryX=1;entryY=0.5;entryDx=0;entryDy=0;" parent="1" source="lT1jIhklgJvkolQbpag2-34" target="lT1jIhklgJvkolQbpag2-37" edge="1">
          <mxGeometry relative="1" as="geometry">
            <Array as="points">
              <mxPoint x="530" y="1260" />
              <mxPoint x="530" y="1530" />
            </Array>
          </mxGeometry>
        </mxCell>
        <mxCell id="lT1jIhklgJvkolQbpag2-34" value="use_schedules" style="rhombus;whiteSpace=wrap;html=1;fillColor=#dae8fc;strokeColor=#6c8ebf;" parent="1" vertex="1">
          <mxGeometry x="287.5" y="1220" width="145" height="80" as="geometry" />
        </mxCell>
        <mxCell id="bjNxImysUXY5s8V9dCKR-4" style="edgeStyle=orthogonalEdgeStyle;rounded=0;orthogonalLoop=1;jettySize=auto;html=1;exitX=0.5;exitY=1;exitDx=0;exitDy=0;entryX=0.5;entryY=0;entryDx=0;entryDy=0;" parent="1" source="lT1jIhklgJvkolQbpag2-37" target="bjNxImysUXY5s8V9dCKR-3" edge="1">
          <mxGeometry relative="1" as="geometry" />
        </mxCell>
        <mxCell id="lT1jIhklgJvkolQbpag2-37" value="process app" style="shape=process;whiteSpace=wrap;html=1;backgroundOutline=1;fillColor=#dae8fc;strokeColor=#6c8ebf;" parent="1" vertex="1">
          <mxGeometry x="300" y="1500" width="120" height="60" as="geometry" />
        </mxCell>
        <mxCell id="bjNxImysUXY5s8V9dCKR-3" value="STARTED" style="ellipse;whiteSpace=wrap;html=1;fillColor=#fff2cc;strokeColor=#d6b656;" parent="1" vertex="1">
          <mxGeometry x="305" y="1620" width="110" height="57.5" as="geometry" />
        </mxCell>
      </root>
    </mxGraphModel>
  </diagram>
  <diagram id="OUiK1veSzUrQH3_PfcND" name="DIAGRAMA DE ESTADOS">
    <mxGraphModel dx="2261" dy="830" grid="1" gridSize="10" guides="1" tooltips="1" connect="1" arrows="1" fold="1" page="1" pageScale="1" pageWidth="827" pageHeight="1169" math="0" shadow="0">
      <root>
        <mxCell id="0" />
        <mxCell id="1" parent="0" />
        <mxCell id="xHm5IiWm6ttRR7FHRe-g-2" style="edgeStyle=orthogonalEdgeStyle;rounded=0;orthogonalLoop=1;jettySize=auto;html=1;exitX=0.5;exitY=1;exitDx=0;exitDy=0;entryX=0.5;entryY=0;entryDx=0;entryDy=0;" parent="1" source="0hxSTXklsQ0mWeh5f41_-1" target="xHm5IiWm6ttRR7FHRe-g-1" edge="1">
          <mxGeometry relative="1" as="geometry" />
        </mxCell>
        <mxCell id="0hxSTXklsQ0mWeh5f41_-1" value="POWER ON" style="rounded=1;whiteSpace=wrap;html=1;fillColor=#dae8fc;strokeColor=#6c8ebf;" parent="1" vertex="1">
          <mxGeometry x="315" y="50" width="90" height="40" as="geometry" />
        </mxCell>
        <mxCell id="xHm5IiWm6ttRR7FHRe-g-6" style="edgeStyle=orthogonalEdgeStyle;rounded=0;orthogonalLoop=1;jettySize=auto;html=1;exitX=1;exitY=0.5;exitDx=0;exitDy=0;curved=1;fillColor=#d5e8d4;strokeColor=#82b366;" parent="1" source="xHm5IiWm6ttRR7FHRe-g-1" target="xHm5IiWm6ttRR7FHRe-g-3" edge="1">
          <mxGeometry relative="1" as="geometry" />
        </mxCell>
        <mxCell id="xHm5IiWm6ttRR7FHRe-g-13" style="edgeStyle=orthogonalEdgeStyle;rounded=0;orthogonalLoop=1;jettySize=auto;html=1;exitX=0;exitY=0.5;exitDx=0;exitDy=0;entryX=0.5;entryY=0;entryDx=0;entryDy=0;curved=1;fillColor=#d5e8d4;strokeColor=#82b366;" parent="1" source="xHm5IiWm6ttRR7FHRe-g-1" target="xHm5IiWm6ttRR7FHRe-g-12" edge="1">
          <mxGeometry relative="1" as="geometry" />
        </mxCell>
        <mxCell id="xHm5IiWm6ttRR7FHRe-g-16" style="edgeStyle=orthogonalEdgeStyle;rounded=0;orthogonalLoop=1;jettySize=auto;html=1;exitX=0.5;exitY=1;exitDx=0;exitDy=0;entryX=0.5;entryY=0;entryDx=0;entryDy=0;curved=1;fillColor=#d5e8d4;strokeColor=#82b366;" parent="1" source="xHm5IiWm6ttRR7FHRe-g-1" target="xHm5IiWm6ttRR7FHRe-g-15" edge="1">
          <mxGeometry relative="1" as="geometry">
            <Array as="points">
              <mxPoint x="300" y="208" />
              <mxPoint x="300" y="330" />
            </Array>
          </mxGeometry>
        </mxCell>
        <mxCell id="vE_SNMnpQuH_RrgMgO2b-3" style="edgeStyle=orthogonalEdgeStyle;rounded=0;orthogonalLoop=1;jettySize=auto;html=1;exitX=0;exitY=1;exitDx=0;exitDy=0;entryX=0.5;entryY=0;entryDx=0;entryDy=0;curved=1;fillColor=#d5e8d4;strokeColor=#82b366;" parent="1" source="xHm5IiWm6ttRR7FHRe-g-1" target="vE_SNMnpQuH_RrgMgO2b-2" edge="1">
          <mxGeometry relative="1" as="geometry">
            <Array as="points">
              <mxPoint x="260" y="199" />
              <mxPoint x="260" y="420" />
              <mxPoint x="350" y="420" />
            </Array>
          </mxGeometry>
        </mxCell>
        <mxCell id="xHm5IiWm6ttRR7FHRe-g-1" value="STARTING" style="ellipse;whiteSpace=wrap;html=1;fillColor=#d5e8d4;strokeColor=#82b366;" parent="1" vertex="1">
          <mxGeometry x="305" y="150" width="110" height="57.5" as="geometry" />
        </mxCell>
        <mxCell id="vE_SNMnpQuH_RrgMgO2b-56" style="edgeStyle=orthogonalEdgeStyle;rounded=0;orthogonalLoop=1;jettySize=auto;html=1;exitX=0.5;exitY=1;exitDx=0;exitDy=0;entryX=1;entryY=0;entryDx=0;entryDy=0;curved=1;fillColor=#d5e8d4;strokeColor=#82b366;" parent="1" source="xHm5IiWm6ttRR7FHRe-g-3" target="vE_SNMnpQuH_RrgMgO2b-2" edge="1">
          <mxGeometry relative="1" as="geometry">
            <Array as="points">
              <mxPoint x="535" y="474" />
              <mxPoint x="460" y="474" />
              <mxPoint x="460" y="659" />
            </Array>
          </mxGeometry>
        </mxCell>
        <mxCell id="xHm5IiWm6ttRR7FHRe-g-3" value="ERROR_APP&lt;div&gt;ERROR_DEVICE&lt;/div&gt;" style="ellipse;whiteSpace=wrap;html=1;fillColor=#d5e8d4;strokeColor=#82b366;" parent="1" vertex="1">
          <mxGeometry x="480" y="240" width="110" height="57.5" as="geometry" />
        </mxCell>
        <mxCell id="xHm5IiWm6ttRR7FHRe-g-4" value="create_event_task" style="text;html=1;align=center;verticalAlign=middle;resizable=0;points=[];autosize=1;strokeColor=none;fillColor=none;" parent="1" vertex="1">
          <mxGeometry x="360" y="108" width="120" height="30" as="geometry" />
        </mxCell>
        <mxCell id="xHm5IiWm6ttRR7FHRe-g-7" value="EVENT_ERROR_APP" style="text;html=1;align=center;verticalAlign=middle;resizable=0;points=[];autosize=1;strokeColor=none;fillColor=none;" parent="1" vertex="1">
          <mxGeometry x="430" y="150" width="140" height="30" as="geometry" />
        </mxCell>
        <mxCell id="xHm5IiWm6ttRR7FHRe-g-10" style="edgeStyle=orthogonalEdgeStyle;rounded=0;orthogonalLoop=1;jettySize=auto;html=1;exitX=0;exitY=0;exitDx=0;exitDy=0;entryX=0;entryY=0.5;entryDx=0;entryDy=0;curved=1;fillColor=#d5e8d4;strokeColor=#82b366;" parent="1" source="xHm5IiWm6ttRR7FHRe-g-1" target="xHm5IiWm6ttRR7FHRe-g-1" edge="1">
          <mxGeometry relative="1" as="geometry">
            <Array as="points">
              <mxPoint x="321" y="130" />
              <mxPoint x="280" y="130" />
              <mxPoint x="280" y="179" />
            </Array>
          </mxGeometry>
        </mxCell>
        <mxCell id="xHm5IiWm6ttRR7FHRe-g-11" value="EVENT_DEVICE_OK" style="text;html=1;align=center;verticalAlign=middle;resizable=0;points=[];autosize=1;strokeColor=none;fillColor=none;" parent="1" vertex="1">
          <mxGeometry x="170" y="108" width="140" height="30" as="geometry" />
        </mxCell>
        <mxCell id="vE_SNMnpQuH_RrgMgO2b-49" style="edgeStyle=orthogonalEdgeStyle;rounded=0;orthogonalLoop=1;jettySize=auto;html=1;exitX=0;exitY=0.5;exitDx=0;exitDy=0;entryX=0.5;entryY=0;entryDx=0;entryDy=0;curved=1;fillColor=#d5e8d4;strokeColor=#82b366;" parent="1" source="xHm5IiWm6ttRR7FHRe-g-12" target="vE_SNMnpQuH_RrgMgO2b-48" edge="1">
          <mxGeometry relative="1" as="geometry" />
        </mxCell>
        <mxCell id="xHm5IiWm6ttRR7FHRe-g-12" value="UPGRADING" style="ellipse;whiteSpace=wrap;html=1;fillColor=#d5e8d4;strokeColor=#82b366;" parent="1" vertex="1">
          <mxGeometry x="80" y="240" width="110" height="57.5" as="geometry" />
        </mxCell>
        <mxCell id="xHm5IiWm6ttRR7FHRe-g-14" value="EVENT_UPGRADE_FIRMWARE" style="text;html=1;align=center;verticalAlign=middle;resizable=0;points=[];autosize=1;strokeColor=none;fillColor=none;" parent="1" vertex="1">
          <mxGeometry x="50" y="150" width="200" height="30" as="geometry" />
        </mxCell>
        <mxCell id="xHm5IiWm6ttRR7FHRe-g-23" style="edgeStyle=orthogonalEdgeStyle;rounded=0;orthogonalLoop=1;jettySize=auto;html=1;exitX=1;exitY=0;exitDx=0;exitDy=0;curved=1;fillColor=#d5e8d4;strokeColor=#82b366;" parent="1" source="xHm5IiWm6ttRR7FHRe-g-15" target="xHm5IiWm6ttRR7FHRe-g-1" edge="1">
          <mxGeometry relative="1" as="geometry">
            <Array as="points">
              <mxPoint x="430" y="339" />
              <mxPoint x="430" y="240" />
              <mxPoint x="400" y="240" />
            </Array>
          </mxGeometry>
        </mxCell>
        <mxCell id="xHm5IiWm6ttRR7FHRe-g-15" value="FACTORY" style="ellipse;whiteSpace=wrap;html=1;fillColor=#d5e8d4;strokeColor=#82b366;" parent="1" vertex="1">
          <mxGeometry x="305" y="330" width="110" height="57.5" as="geometry" />
        </mxCell>
        <mxCell id="xHm5IiWm6ttRR7FHRe-g-17" value="EVENT_FACTORY" style="text;html=1;align=center;verticalAlign=middle;resizable=0;points=[];autosize=1;strokeColor=none;fillColor=none;" parent="1" vertex="1">
          <mxGeometry x="240" y="220" width="130" height="30" as="geometry" />
        </mxCell>
        <mxCell id="xHm5IiWm6ttRR7FHRe-g-19" value="EVENT_SMARTCONFIG_END" style="text;html=1;align=center;verticalAlign=middle;resizable=0;points=[];autosize=1;strokeColor=none;fillColor=none;" parent="1" vertex="1">
          <mxGeometry x="350" y="300" width="190" height="30" as="geometry" />
        </mxCell>
        <mxCell id="xHm5IiWm6ttRR7FHRe-g-21" value="EVENT_SMARTCONFIG_START" style="text;html=1;align=center;verticalAlign=middle;resizable=0;points=[];autosize=1;strokeColor=none;fillColor=none;" parent="1" vertex="1">
          <mxGeometry x="430" y="357.5" width="200" height="30" as="geometry" />
        </mxCell>
        <mxCell id="vE_SNMnpQuH_RrgMgO2b-1" style="edgeStyle=orthogonalEdgeStyle;rounded=0;orthogonalLoop=1;jettySize=auto;html=1;exitX=1;exitY=0.5;exitDx=0;exitDy=0;entryX=0.5;entryY=1;entryDx=0;entryDy=0;curved=1;fillColor=#d5e8d4;strokeColor=#82b366;" parent="1" source="xHm5IiWm6ttRR7FHRe-g-15" target="xHm5IiWm6ttRR7FHRe-g-15" edge="1">
          <mxGeometry relative="1" as="geometry" />
        </mxCell>
        <mxCell id="vE_SNMnpQuH_RrgMgO2b-13" style="edgeStyle=orthogonalEdgeStyle;rounded=0;orthogonalLoop=1;jettySize=auto;html=1;exitX=0;exitY=0.5;exitDx=0;exitDy=0;entryX=0.5;entryY=0;entryDx=0;entryDy=0;curved=1;fillColor=#d5e8d4;strokeColor=#82b366;" parent="1" source="vE_SNMnpQuH_RrgMgO2b-2" target="vE_SNMnpQuH_RrgMgO2b-12" edge="1">
          <mxGeometry relative="1" as="geometry" />
        </mxCell>
        <mxCell id="vE_SNMnpQuH_RrgMgO2b-16" style="edgeStyle=orthogonalEdgeStyle;rounded=0;orthogonalLoop=1;jettySize=auto;html=1;exitX=1;exitY=0.5;exitDx=0;exitDy=0;entryX=0.5;entryY=0;entryDx=0;entryDy=0;curved=1;fillColor=#d5e8d4;strokeColor=#82b366;" parent="1" source="vE_SNMnpQuH_RrgMgO2b-2" target="vE_SNMnpQuH_RrgMgO2b-10" edge="1">
          <mxGeometry relative="1" as="geometry" />
        </mxCell>
        <mxCell id="vE_SNMnpQuH_RrgMgO2b-58" style="edgeStyle=orthogonalEdgeStyle;rounded=0;orthogonalLoop=1;jettySize=auto;html=1;exitX=1;exitY=0.5;exitDx=0;exitDy=0;entryX=1;entryY=1;entryDx=0;entryDy=0;curved=1;fillColor=#d5e8d4;strokeColor=#82b366;" parent="1" source="vE_SNMnpQuH_RrgMgO2b-2" target="xHm5IiWm6ttRR7FHRe-g-3" edge="1">
          <mxGeometry relative="1" as="geometry" />
        </mxCell>
        <mxCell id="vE_SNMnpQuH_RrgMgO2b-2" value="APP STARTED&lt;div&gt;DEVICE READY&lt;/div&gt;" style="ellipse;whiteSpace=wrap;html=1;fillColor=#d5e8d4;strokeColor=#82b366;" parent="1" vertex="1">
          <mxGeometry x="355" y="644.25" width="110" height="57.5" as="geometry" />
        </mxCell>
        <mxCell id="vE_SNMnpQuH_RrgMgO2b-6" value="EVENT_START_APP" style="text;html=1;align=center;verticalAlign=middle;resizable=0;points=[];autosize=1;strokeColor=none;fillColor=none;" parent="1" vertex="1">
          <mxGeometry x="315" y="440" width="140" height="30" as="geometry" />
        </mxCell>
        <mxCell id="vE_SNMnpQuH_RrgMgO2b-41" style="edgeStyle=orthogonalEdgeStyle;rounded=0;orthogonalLoop=1;jettySize=auto;html=1;exitX=0.5;exitY=0;exitDx=0;exitDy=0;entryX=0.5;entryY=1;entryDx=0;entryDy=0;curved=1;fillColor=#d5e8d4;strokeColor=#82b366;" parent="1" source="vE_SNMnpQuH_RrgMgO2b-7" target="vE_SNMnpQuH_RrgMgO2b-12" edge="1">
          <mxGeometry relative="1" as="geometry" />
        </mxCell>
        <mxCell id="E-w-pVECgMD8nQAHvXrJ-23" style="edgeStyle=orthogonalEdgeStyle;rounded=0;orthogonalLoop=1;jettySize=auto;html=1;exitX=0;exitY=0;exitDx=0;exitDy=0;curved=1;fillColor=#d5e8d4;strokeColor=#82b366;" parent="1" source="vE_SNMnpQuH_RrgMgO2b-7" target="xHm5IiWm6ttRR7FHRe-g-12" edge="1">
          <mxGeometry relative="1" as="geometry" />
        </mxCell>
        <mxCell id="vE_SNMnpQuH_RrgMgO2b-7" value="SCHEDULING" style="ellipse;whiteSpace=wrap;html=1;fillColor=#d5e8d4;strokeColor=#82b366;" parent="1" vertex="1">
          <mxGeometry x="-60" y="936.25" width="110" height="57.5" as="geometry" />
        </mxCell>
        <mxCell id="vE_SNMnpQuH_RrgMgO2b-25" style="edgeStyle=orthogonalEdgeStyle;rounded=0;orthogonalLoop=1;jettySize=auto;html=1;exitX=1;exitY=0.5;exitDx=0;exitDy=0;entryX=0;entryY=0.5;entryDx=0;entryDy=0;curved=1;fillColor=#d5e8d4;strokeColor=#82b366;" parent="1" source="vE_SNMnpQuH_RrgMgO2b-8" target="vE_SNMnpQuH_RrgMgO2b-10" edge="1">
          <mxGeometry relative="1" as="geometry" />
        </mxCell>
        <mxCell id="vE_SNMnpQuH_RrgMgO2b-39" style="edgeStyle=orthogonalEdgeStyle;rounded=0;orthogonalLoop=1;jettySize=auto;html=1;exitX=0.5;exitY=1;exitDx=0;exitDy=0;entryX=0.5;entryY=0;entryDx=0;entryDy=0;curved=1;fillColor=#d5e8d4;strokeColor=#82b366;" parent="1" source="vE_SNMnpQuH_RrgMgO2b-8" target="vE_SNMnpQuH_RrgMgO2b-9" edge="1">
          <mxGeometry relative="1" as="geometry" />
        </mxCell>
        <mxCell id="E-w-pVECgMD8nQAHvXrJ-6" style="edgeStyle=orthogonalEdgeStyle;rounded=0;orthogonalLoop=1;jettySize=auto;html=1;exitX=0;exitY=0;exitDx=0;exitDy=0;entryX=1;entryY=0.5;entryDx=0;entryDy=0;curved=1;fillColor=#d5e8d4;strokeColor=#82b366;" parent="1" source="vE_SNMnpQuH_RrgMgO2b-8" target="vE_SNMnpQuH_RrgMgO2b-12" edge="1">
          <mxGeometry relative="1" as="geometry" />
        </mxCell>
        <mxCell id="E-w-pVECgMD8nQAHvXrJ-9" value="EVENT_END_SCHEDULE" style="edgeLabel;html=1;align=center;verticalAlign=middle;resizable=0;points=[];" parent="E-w-pVECgMD8nQAHvXrJ-6" vertex="1" connectable="0">
          <mxGeometry x="-0.3273" y="-8" relative="1" as="geometry">
            <mxPoint y="-15" as="offset" />
          </mxGeometry>
        </mxCell>
        <mxCell id="vE_SNMnpQuH_RrgMgO2b-8" value="NORMAL_AUTO" style="ellipse;whiteSpace=wrap;html=1;fillColor=#d5e8d4;strokeColor=#82b366;" parent="1" vertex="1">
          <mxGeometry x="359" y="871.5" width="110" height="57.5" as="geometry" />
        </mxCell>
        <mxCell id="vE_SNMnpQuH_RrgMgO2b-24" style="edgeStyle=orthogonalEdgeStyle;rounded=0;orthogonalLoop=1;jettySize=auto;html=1;exitX=1;exitY=0.5;exitDx=0;exitDy=0;entryX=0.5;entryY=1;entryDx=0;entryDy=0;curved=1;fillColor=#d5e8d4;strokeColor=#82b366;" parent="1" source="vE_SNMnpQuH_RrgMgO2b-9" target="vE_SNMnpQuH_RrgMgO2b-10" edge="1">
          <mxGeometry relative="1" as="geometry" />
        </mxCell>
        <mxCell id="vE_SNMnpQuH_RrgMgO2b-42" style="edgeStyle=orthogonalEdgeStyle;rounded=0;orthogonalLoop=1;jettySize=auto;html=1;exitX=0;exitY=0.5;exitDx=0;exitDy=0;entryX=1;entryY=1;entryDx=0;entryDy=0;curved=1;fillColor=#d5e8d4;strokeColor=#82b366;" parent="1" source="vE_SNMnpQuH_RrgMgO2b-9" target="vE_SNMnpQuH_RrgMgO2b-12" edge="1">
          <mxGeometry relative="1" as="geometry" />
        </mxCell>
        <mxCell id="vE_SNMnpQuH_RrgMgO2b-9" value="NORMAL_AUTOMAN" style="ellipse;whiteSpace=wrap;html=1;fillColor=#d5e8d4;strokeColor=#82b366;" parent="1" vertex="1">
          <mxGeometry x="349" y="1100" width="130" height="60" as="geometry" />
        </mxCell>
        <mxCell id="vE_SNMnpQuH_RrgMgO2b-54" style="edgeStyle=orthogonalEdgeStyle;rounded=0;orthogonalLoop=1;jettySize=auto;html=1;exitX=1;exitY=0.5;exitDx=0;exitDy=0;entryX=1;entryY=0.5;entryDx=0;entryDy=0;curved=1;fillColor=#d5e8d4;strokeColor=#82b366;" parent="1" source="vE_SNMnpQuH_RrgMgO2b-10" target="xHm5IiWm6ttRR7FHRe-g-3" edge="1">
          <mxGeometry relative="1" as="geometry" />
        </mxCell>
        <mxCell id="vE_SNMnpQuH_RrgMgO2b-10" value="NORMAL_MANUAL" style="ellipse;whiteSpace=wrap;html=1;fillColor=#d5e8d4;strokeColor=#82b366;" parent="1" vertex="1">
          <mxGeometry x="640" y="814" width="110" height="57.5" as="geometry" />
        </mxCell>
        <mxCell id="vE_SNMnpQuH_RrgMgO2b-15" style="edgeStyle=orthogonalEdgeStyle;rounded=0;orthogonalLoop=1;jettySize=auto;html=1;exitX=1;exitY=0.5;exitDx=0;exitDy=0;entryX=0.5;entryY=0;entryDx=0;entryDy=0;curved=1;fillColor=#d5e8d4;strokeColor=#82b366;" parent="1" source="vE_SNMnpQuH_RrgMgO2b-12" target="vE_SNMnpQuH_RrgMgO2b-8" edge="1">
          <mxGeometry relative="1" as="geometry" />
        </mxCell>
        <mxCell id="vE_SNMnpQuH_RrgMgO2b-26" style="edgeStyle=orthogonalEdgeStyle;rounded=0;orthogonalLoop=1;jettySize=auto;html=1;exitX=0;exitY=0.5;exitDx=0;exitDy=0;entryX=0;entryY=0.5;entryDx=0;entryDy=0;curved=1;fillColor=#d5e8d4;strokeColor=#82b366;" parent="1" source="vE_SNMnpQuH_RrgMgO2b-12" target="vE_SNMnpQuH_RrgMgO2b-7" edge="1">
          <mxGeometry relative="1" as="geometry" />
        </mxCell>
        <mxCell id="E-w-pVECgMD8nQAHvXrJ-13" style="edgeStyle=orthogonalEdgeStyle;rounded=0;orthogonalLoop=1;jettySize=auto;html=1;exitX=0;exitY=0;exitDx=0;exitDy=0;entryX=0;entryY=1;entryDx=0;entryDy=0;curved=1;fillColor=#d5e8d4;strokeColor=#82b366;" parent="1" source="vE_SNMnpQuH_RrgMgO2b-12" target="xHm5IiWm6ttRR7FHRe-g-12" edge="1">
          <mxGeometry relative="1" as="geometry" />
        </mxCell>
        <mxCell id="E-w-pVECgMD8nQAHvXrJ-17" style="edgeStyle=orthogonalEdgeStyle;rounded=0;orthogonalLoop=1;jettySize=auto;html=1;exitX=1;exitY=0;exitDx=0;exitDy=0;entryX=0;entryY=0.5;entryDx=0;entryDy=0;curved=1;" parent="1" source="vE_SNMnpQuH_RrgMgO2b-12" target="xHm5IiWm6ttRR7FHRe-g-3" edge="1">
          <mxGeometry relative="1" as="geometry">
            <Array as="points">
              <mxPoint x="200" y="759" />
              <mxPoint x="200" y="269" />
            </Array>
          </mxGeometry>
        </mxCell>
        <mxCell id="vE_SNMnpQuH_RrgMgO2b-12" value="CHECK_SCHEDULES" style="ellipse;whiteSpace=wrap;html=1;fillColor=#d5e8d4;strokeColor=#82b366;" parent="1" vertex="1">
          <mxGeometry x="120" y="720" width="150" height="64" as="geometry" />
        </mxCell>
        <mxCell id="vE_SNMnpQuH_RrgMgO2b-28" value="EVENT_START_SCHEDULE" style="text;html=1;align=center;verticalAlign=middle;resizable=0;points=[];autosize=1;strokeColor=none;fillColor=none;" parent="1" vertex="1">
          <mxGeometry x="-100" y="770" width="180" height="30" as="geometry" />
        </mxCell>
        <mxCell id="vE_SNMnpQuH_RrgMgO2b-29" value="EVENT_END_SCHEDULE" style="text;html=1;align=center;verticalAlign=middle;resizable=0;points=[];autosize=1;strokeColor=none;fillColor=none;" parent="1" vertex="1">
          <mxGeometry x="100" y="890" width="170" height="30" as="geometry" />
        </mxCell>
        <mxCell id="vE_SNMnpQuH_RrgMgO2b-30" value="EVENT_NONE_SHCEDULE" style="text;html=1;align=center;verticalAlign=middle;resizable=0;points=[];autosize=1;strokeColor=none;fillColor=none;" parent="1" vertex="1">
          <mxGeometry x="355" y="750" width="180" height="30" as="geometry" />
        </mxCell>
        <mxCell id="vE_SNMnpQuH_RrgMgO2b-32" value="EVENT_CHECK_SCHEDULES" style="text;html=1;align=center;verticalAlign=middle;resizable=0;points=[];autosize=1;strokeColor=none;fillColor=none;" parent="1" vertex="1">
          <mxGeometry x="80" y="658" width="190" height="30" as="geometry" />
        </mxCell>
        <mxCell id="vE_SNMnpQuH_RrgMgO2b-33" value="EVENT_NO_SCHEDULE" style="text;html=1;align=center;verticalAlign=middle;resizable=0;points=[];autosize=1;strokeColor=none;fillColor=none;" parent="1" vertex="1">
          <mxGeometry x="560" y="668" width="160" height="30" as="geometry" />
        </mxCell>
        <mxCell id="vE_SNMnpQuH_RrgMgO2b-34" value="EVENT_NO_SCHEDULE" style="text;html=1;align=center;verticalAlign=middle;resizable=0;points=[];autosize=1;strokeColor=none;fillColor=none;" parent="1" vertex="1">
          <mxGeometry x="650" y="920" width="160" height="30" as="geometry" />
        </mxCell>
        <mxCell id="vE_SNMnpQuH_RrgMgO2b-35" value="EVENT_NONE_SHCEDULE" style="text;html=1;align=center;verticalAlign=middle;resizable=0;points=[];autosize=1;strokeColor=none;fillColor=none;" parent="1" vertex="1">
          <mxGeometry x="450" y="850" width="180" height="30" as="geometry" />
        </mxCell>
        <mxCell id="vE_SNMnpQuH_RrgMgO2b-36" value="EVENT_AUTOMAN" style="text;html=1;align=center;verticalAlign=middle;resizable=0;points=[];autosize=1;strokeColor=none;fillColor=none;" parent="1" vertex="1">
          <mxGeometry x="420" y="1000" width="130" height="30" as="geometry" />
        </mxCell>
        <mxCell id="vE_SNMnpQuH_RrgMgO2b-38" value="EVENT_END_SCHEDULE" style="text;html=1;align=center;verticalAlign=middle;resizable=0;points=[];autosize=1;strokeColor=none;fillColor=none;" parent="1" vertex="1">
          <mxGeometry x="220" y="970" width="170" height="30" as="geometry" />
        </mxCell>
        <mxCell id="vE_SNMnpQuH_RrgMgO2b-47" value="EVENT_UPGRADE_FIRMWARE" style="text;html=1;align=center;verticalAlign=middle;resizable=0;points=[];autosize=1;strokeColor=none;fillColor=none;" parent="1" vertex="1">
          <mxGeometry x="105" y="460" width="200" height="30" as="geometry" />
        </mxCell>
        <mxCell id="vE_SNMnpQuH_RrgMgO2b-52" style="edgeStyle=orthogonalEdgeStyle;rounded=0;orthogonalLoop=1;jettySize=auto;html=1;exitX=0;exitY=0.5;exitDx=0;exitDy=0;entryX=0;entryY=0.25;entryDx=0;entryDy=0;curved=1;fillColor=#d5e8d4;strokeColor=#82b366;" parent="1" source="vE_SNMnpQuH_RrgMgO2b-48" target="0hxSTXklsQ0mWeh5f41_-1" edge="1">
          <mxGeometry relative="1" as="geometry" />
        </mxCell>
        <mxCell id="vE_SNMnpQuH_RrgMgO2b-48" value="RESTARTING" style="ellipse;whiteSpace=wrap;html=1;fillColor=#d5e8d4;strokeColor=#82b366;" parent="1" vertex="1">
          <mxGeometry x="-90" y="343.75" width="110" height="57.5" as="geometry" />
        </mxCell>
        <mxCell id="vE_SNMnpQuH_RrgMgO2b-51" value="EVENT_END_UPGRADE" style="text;html=1;align=center;verticalAlign=middle;resizable=0;points=[];autosize=1;strokeColor=none;fillColor=none;" parent="1" vertex="1">
          <mxGeometry x="-110" y="290" width="160" height="30" as="geometry" />
        </mxCell>
        <mxCell id="vE_SNMnpQuH_RrgMgO2b-55" value="EVENT_ERROR_DEVICE" style="text;html=1;align=center;verticalAlign=middle;resizable=0;points=[];autosize=1;strokeColor=none;fillColor=none;" parent="1" vertex="1">
          <mxGeometry x="615" y="480" width="160" height="30" as="geometry" />
        </mxCell>
        <mxCell id="vE_SNMnpQuH_RrgMgO2b-57" value="EVENT_DEVICE_OK" style="text;html=1;align=center;verticalAlign=middle;resizable=0;points=[];autosize=1;strokeColor=none;fillColor=none;" parent="1" vertex="1">
          <mxGeometry x="440" y="540" width="140" height="30" as="geometry" />
        </mxCell>
        <mxCell id="vE_SNMnpQuH_RrgMgO2b-59" value="EVENT_ERROR_DEVICE" style="text;html=1;align=center;verticalAlign=middle;resizable=0;points=[];autosize=1;strokeColor=none;fillColor=none;" parent="1" vertex="1">
          <mxGeometry x="520" y="510" width="160" height="30" as="geometry" />
        </mxCell>
        <mxCell id="vE_SNMnpQuH_RrgMgO2b-60" style="edgeStyle=orthogonalEdgeStyle;rounded=0;orthogonalLoop=1;jettySize=auto;html=1;exitX=0;exitY=0;exitDx=0;exitDy=0;entryX=0.645;entryY=0.957;entryDx=0;entryDy=0;entryPerimeter=0;curved=1;fillColor=#d5e8d4;strokeColor=#82b366;" parent="1" source="vE_SNMnpQuH_RrgMgO2b-2" target="xHm5IiWm6ttRR7FHRe-g-12" edge="1">
          <mxGeometry relative="1" as="geometry" />
        </mxCell>
        <mxCell id="E-w-pVECgMD8nQAHvXrJ-1" style="edgeStyle=orthogonalEdgeStyle;rounded=0;orthogonalLoop=1;jettySize=auto;html=1;exitX=0;exitY=0;exitDx=0;exitDy=0;entryX=0.364;entryY=1.043;entryDx=0;entryDy=0;entryPerimeter=0;curved=1;fillColor=#d5e8d4;strokeColor=#82b366;" parent="1" source="vE_SNMnpQuH_RrgMgO2b-10" target="xHm5IiWm6ttRR7FHRe-g-12" edge="1">
          <mxGeometry relative="1" as="geometry" />
        </mxCell>
        <mxCell id="E-w-pVECgMD8nQAHvXrJ-3" value="EVENT_CHECK_SCHEDULES" style="text;html=1;align=center;verticalAlign=middle;resizable=0;points=[];autosize=1;strokeColor=none;fillColor=none;" parent="1" vertex="1">
          <mxGeometry x="425" y="950" width="190" height="30" as="geometry" />
        </mxCell>
        <mxCell id="E-w-pVECgMD8nQAHvXrJ-10" style="edgeStyle=orthogonalEdgeStyle;rounded=0;orthogonalLoop=1;jettySize=auto;html=1;exitX=0;exitY=1;exitDx=0;exitDy=0;entryX=0.573;entryY=0.984;entryDx=0;entryDy=0;entryPerimeter=0;curved=1;fillColor=#d5e8d4;strokeColor=#82b366;" parent="1" source="vE_SNMnpQuH_RrgMgO2b-10" target="vE_SNMnpQuH_RrgMgO2b-12" edge="1">
          <mxGeometry relative="1" as="geometry">
            <Array as="points">
              <mxPoint x="656" y="950" />
              <mxPoint x="186" y="950" />
            </Array>
          </mxGeometry>
        </mxCell>
        <mxCell id="E-w-pVECgMD8nQAHvXrJ-14" value="EVENT_UPGRADE_FIRMWARE" style="text;html=1;align=center;verticalAlign=middle;resizable=0;points=[];autosize=1;strokeColor=none;fillColor=none;" parent="1" vertex="1">
          <mxGeometry x="-60" y="510" width="200" height="30" as="geometry" />
        </mxCell>
        <mxCell id="E-w-pVECgMD8nQAHvXrJ-16" value="EVENT_ERROR_DEVICE" style="text;html=1;align=center;verticalAlign=middle;resizable=0;points=[];autosize=1;strokeColor=none;fillColor=none;" parent="1" vertex="1">
          <mxGeometry x="180" y="510" width="160" height="30" as="geometry" />
        </mxCell>
        <mxCell id="E-w-pVECgMD8nQAHvXrJ-18" value="EVENT_END_SCHEDULE" style="text;html=1;align=center;verticalAlign=middle;resizable=0;points=[];autosize=1;strokeColor=none;fillColor=none;" parent="1" vertex="1">
          <mxGeometry x="-100" y="800" width="170" height="30" as="geometry" />
        </mxCell>
      </root>
    </mxGraphModel>
  </diagram>
  <diagram id="nn6npggUwyK-fyVQMUy4" name="PÃ¡gina-3">
    <mxGraphModel dx="1434" dy="829" grid="1" gridSize="10" guides="1" tooltips="1" connect="1" arrows="1" fold="1" page="1" pageScale="1" pageWidth="827" pageHeight="1169" math="0" shadow="0">
      <root>
        <mxCell id="0" />
        <mxCell id="1" parent="0" />
        <mxCell id="JEmkg8BlVwoBcZpxFYD_-2" style="edgeStyle=orthogonalEdgeStyle;rounded=0;orthogonalLoop=1;jettySize=auto;html=1;exitX=0.5;exitY=1;exitDx=0;exitDy=0;entryX=0.5;entryY=0;entryDx=0;entryDy=0;" edge="1" parent="1" source="I7Njaal46LTQzCStAfM7-13" target="JEmkg8BlVwoBcZpxFYD_-1">
          <mxGeometry relative="1" as="geometry" />
        </mxCell>
        <mxCell id="I7Njaal46LTQzCStAfM7-13" value="ERROR_APP" style="ellipse;whiteSpace=wrap;html=1;fillColor=#d5e8d4;strokeColor=#82b366;" vertex="1" parent="1">
          <mxGeometry x="135" y="70" width="110" height="57.5" as="geometry" />
        </mxCell>
        <mxCell id="JEmkg8BlVwoBcZpxFYD_-5" style="edgeStyle=orthogonalEdgeStyle;rounded=0;orthogonalLoop=1;jettySize=auto;html=1;exitX=0.5;exitY=1;exitDx=0;exitDy=0;entryX=0.5;entryY=0;entryDx=0;entryDy=0;" edge="1" parent="1" source="JEmkg8BlVwoBcZpxFYD_-1" target="JEmkg8BlVwoBcZpxFYD_-4">
          <mxGeometry relative="1" as="geometry" />
        </mxCell>
        <mxCell id="JEmkg8BlVwoBcZpxFYD_-1" value="RECOVERING" style="ellipse;whiteSpace=wrap;html=1;fillColor=#d5e8d4;strokeColor=#82b366;" vertex="1" parent="1">
          <mxGeometry x="135" y="170" width="110" height="57.5" as="geometry" />
        </mxCell>
        <mxCell id="JEmkg8BlVwoBcZpxFYD_-3" value="EVENT_WIFI_ERROR" style="text;html=1;align=center;verticalAlign=middle;resizable=0;points=[];autosize=1;strokeColor=none;fillColor=none;" vertex="1" parent="1">
          <mxGeometry x="195" y="130" width="150" height="30" as="geometry" />
        </mxCell>
        <mxCell id="dq4BfGGUMMbzSgLWq_BD-3" style="edgeStyle=orthogonalEdgeStyle;rounded=0;orthogonalLoop=1;jettySize=auto;html=1;exitX=0.5;exitY=1;exitDx=0;exitDy=0;entryX=0.5;entryY=0;entryDx=0;entryDy=0;" edge="1" parent="1" source="JEmkg8BlVwoBcZpxFYD_-4">
          <mxGeometry relative="1" as="geometry">
            <mxPoint x="190" y="420" as="targetPoint" />
          </mxGeometry>
        </mxCell>
        <mxCell id="dq4BfGGUMMbzSgLWq_BD-15" style="edgeStyle=orthogonalEdgeStyle;rounded=0;orthogonalLoop=1;jettySize=auto;html=1;exitX=1;exitY=0.5;exitDx=0;exitDy=0;entryX=0;entryY=0.5;entryDx=0;entryDy=0;" edge="1" parent="1" source="JEmkg8BlVwoBcZpxFYD_-4" target="dq4BfGGUMMbzSgLWq_BD-14">
          <mxGeometry relative="1" as="geometry" />
        </mxCell>
        <mxCell id="JEmkg8BlVwoBcZpxFYD_-4" value="RECOVERING" style="ellipse;whiteSpace=wrap;html=1;fillColor=#d5e8d4;strokeColor=#82b366;" vertex="1" parent="1">
          <mxGeometry x="135" y="280" width="110" height="57.5" as="geometry" />
        </mxCell>
        <mxCell id="JEmkg8BlVwoBcZpxFYD_-6" value="EVENT_WIFI_OK" style="text;html=1;align=center;verticalAlign=middle;resizable=0;points=[];autosize=1;strokeColor=none;fillColor=none;" vertex="1" parent="1">
          <mxGeometry x="195" y="240" width="120" height="30" as="geometry" />
        </mxCell>
        <mxCell id="dq4BfGGUMMbzSgLWq_BD-4" value="EVENT_MQTT_ERROR" style="text;html=1;align=center;verticalAlign=middle;resizable=0;points=[];autosize=1;strokeColor=none;fillColor=none;" vertex="1" parent="1">
          <mxGeometry x="195" y="360" width="150" height="30" as="geometry" />
        </mxCell>
        <mxCell id="dq4BfGGUMMbzSgLWq_BD-6" style="edgeStyle=orthogonalEdgeStyle;rounded=0;orthogonalLoop=1;jettySize=auto;html=1;exitX=0;exitY=0.5;exitDx=0;exitDy=0;entryX=0;entryY=0.5;entryDx=0;entryDy=0;" edge="1" parent="1" source="dq4BfGGUMMbzSgLWq_BD-5" target="JEmkg8BlVwoBcZpxFYD_-4">
          <mxGeometry relative="1" as="geometry" />
        </mxCell>
        <mxCell id="dq4BfGGUMMbzSgLWq_BD-9" style="edgeStyle=orthogonalEdgeStyle;rounded=0;orthogonalLoop=1;jettySize=auto;html=1;exitX=0.5;exitY=1;exitDx=0;exitDy=0;entryX=0.5;entryY=0;entryDx=0;entryDy=0;" edge="1" parent="1" source="dq4BfGGUMMbzSgLWq_BD-5" target="dq4BfGGUMMbzSgLWq_BD-8">
          <mxGeometry relative="1" as="geometry" />
        </mxCell>
        <mxCell id="dq4BfGGUMMbzSgLWq_BD-5" value="RETRY &amp;lt; 10" style="rhombus;whiteSpace=wrap;html=1;" vertex="1" parent="1">
          <mxGeometry x="127.5" y="420" width="125" height="80" as="geometry" />
        </mxCell>
        <mxCell id="dq4BfGGUMMbzSgLWq_BD-7" value="SI" style="text;html=1;align=center;verticalAlign=middle;resizable=0;points=[];autosize=1;strokeColor=none;fillColor=none;" vertex="1" parent="1">
          <mxGeometry x="100" y="468" width="30" height="30" as="geometry" />
        </mxCell>
        <mxCell id="dq4BfGGUMMbzSgLWq_BD-8" value="RESTARTING" style="ellipse;whiteSpace=wrap;html=1;fillColor=#d5e8d4;strokeColor=#82b366;" vertex="1" parent="1">
          <mxGeometry x="135" y="556" width="110" height="57.5" as="geometry" />
        </mxCell>
        <mxCell id="dq4BfGGUMMbzSgLWq_BD-12" style="edgeStyle=orthogonalEdgeStyle;rounded=0;orthogonalLoop=1;jettySize=auto;html=1;exitX=0.5;exitY=1;exitDx=0;exitDy=0;entryX=0.5;entryY=0;entryDx=0;entryDy=0;" edge="1" parent="1" source="dq4BfGGUMMbzSgLWq_BD-10" target="dq4BfGGUMMbzSgLWq_BD-11">
          <mxGeometry relative="1" as="geometry" />
        </mxCell>
        <mxCell id="dq4BfGGUMMbzSgLWq_BD-10" value="STARTING" style="ellipse;whiteSpace=wrap;html=1;fillColor=#d5e8d4;strokeColor=#82b366;" vertex="1" parent="1">
          <mxGeometry x="520" y="70" width="110" height="57.5" as="geometry" />
        </mxCell>
        <mxCell id="dq4BfGGUMMbzSgLWq_BD-17" style="edgeStyle=orthogonalEdgeStyle;rounded=0;orthogonalLoop=1;jettySize=auto;html=1;exitX=0.5;exitY=1;exitDx=0;exitDy=0;entryX=0.5;entryY=0;entryDx=0;entryDy=0;" edge="1" parent="1" source="dq4BfGGUMMbzSgLWq_BD-11" target="dq4BfGGUMMbzSgLWq_BD-14">
          <mxGeometry relative="1" as="geometry" />
        </mxCell>
        <mxCell id="dq4BfGGUMMbzSgLWq_BD-11" value="STARTING" style="ellipse;whiteSpace=wrap;html=1;fillColor=#d5e8d4;strokeColor=#82b366;" vertex="1" parent="1">
          <mxGeometry x="520" y="170" width="110" height="57.5" as="geometry" />
        </mxCell>
        <mxCell id="dq4BfGGUMMbzSgLWq_BD-13" value="EVENT_WIFI_ERROR" style="text;html=1;align=center;verticalAlign=middle;resizable=0;points=[];autosize=1;strokeColor=none;fillColor=none;" vertex="1" parent="1">
          <mxGeometry x="580" y="130" width="150" height="30" as="geometry" />
        </mxCell>
        <mxCell id="dq4BfGGUMMbzSgLWq_BD-19" style="edgeStyle=orthogonalEdgeStyle;rounded=0;orthogonalLoop=1;jettySize=auto;html=1;exitX=0;exitY=0;exitDx=0;exitDy=0;entryX=0.5;entryY=0;entryDx=0;entryDy=0;curved=1;" edge="1" parent="1" source="dq4BfGGUMMbzSgLWq_BD-14" target="I7Njaal46LTQzCStAfM7-13">
          <mxGeometry relative="1" as="geometry">
            <Array as="points">
              <mxPoint x="460" y="289" />
              <mxPoint x="460" y="50" />
              <mxPoint x="190" y="50" />
            </Array>
          </mxGeometry>
        </mxCell>
        <mxCell id="dq4BfGGUMMbzSgLWq_BD-14" value="DEVICE_READY" style="ellipse;whiteSpace=wrap;html=1;fillColor=#d5e8d4;strokeColor=#82b366;" vertex="1" parent="1">
          <mxGeometry x="520" y="280" width="110" height="57.5" as="geometry" />
        </mxCell>
        <mxCell id="dq4BfGGUMMbzSgLWq_BD-16" value="EVENT_MQTT_OK" style="text;html=1;align=center;verticalAlign=middle;resizable=0;points=[];autosize=1;strokeColor=none;fillColor=none;" vertex="1" parent="1">
          <mxGeometry x="295" y="268" width="130" height="30" as="geometry" />
        </mxCell>
        <mxCell id="dq4BfGGUMMbzSgLWq_BD-18" value="EVENT_MQTT_OK" style="text;html=1;align=center;verticalAlign=middle;resizable=0;points=[];autosize=1;strokeColor=none;fillColor=none;" vertex="1" parent="1">
          <mxGeometry x="590" y="240" width="130" height="30" as="geometry" />
        </mxCell>
        <mxCell id="dq4BfGGUMMbzSgLWq_BD-20" value="EVENT_WIFI_OK" style="text;html=1;align=center;verticalAlign=middle;resizable=0;points=[];autosize=1;strokeColor=none;fillColor=none;" vertex="1" parent="1">
          <mxGeometry x="390" y="30" width="120" height="30" as="geometry" />
        </mxCell>
      </root>
    </mxGraphModel>
  </diagram>
</mxfile>
